<svg width="42" height="15" viewBox="0 0 42 15" fill="none" xmlns="http://www.w3.org/2000/svg">
<path d="M35.2768 14.2625L41.1731 8.60382C41.3686 8.41622 41.4815 8.15866 41.4871 7.88778C41.4927 7.61691 41.3904 7.35492 41.2028 7.15944L35.5442 1.26312C35.4043 1.1169 35.2243 1.0155 35.0267 0.971754C34.8292 0.928011 34.6232 0.943902 34.4347 1.01741C34.2462 1.09092 34.0838 1.21874 33.968 1.38467C33.8523 1.55059 33.7884 1.74715 33.7845 1.94942L33.6881 6.70577L0.0443855 6.01232L0.00231792 8.05755L33.6461 8.74811L33.5468 13.5044C33.5424 13.7067 33.5982 13.9057 33.707 14.0762C33.8158 14.2468 33.9728 14.3811 34.1581 14.4623C34.3434 14.5435 34.5487 14.5679 34.7478 14.5323C34.947 14.4967 35.1311 14.4028 35.2768 14.2625Z" fill="white"/>
</svg>
